<svg viewBox="0 0 512 512" xmlns="http://www.w3.org/2000/svg">
  <rect width="512" height="512" rx="96" fill="#1A1D20"/>
  <path d="M 96 416 L 200 312 L 280 360 L 416 200" stroke="#33383D" stroke-width="88" stroke-linecap="round" stroke-linejoin="round" fill="none"/>
  <path d="M 96 416 L 200 312 L 280 360 L 416 200" stroke="#EEF1F3" stroke-width="30" stroke-linecap="round" stroke-linejoin="round" fill="none" stroke-dasharray="4 44"/>
  <path d="M 96 416 L 200 312 L 280 360 L 416 176" stroke="#A94DF0" stroke-width="18" stroke-linecap="round" stroke-linejoin="round" fill="none" opacity="0.9"/>
  <g stroke="#0E0F11" stroke-width="10" stroke-linejoin="round">
    <polygon points="416,80 434,120 416,138 398,120" fill="#8F3FE0"/>
    <polygon points="416,224 434,184 416,166 398,184" fill="#8F3FE0"/>
    <polygon points="488,152 448,170 430,152 448,134" fill="#8F3FE0"/>
    <polygon points="344,152 384,170 402,152 384,134" fill="#8F3FE0"/>
    <circle cx="416" cy="152" r="25" fill="#8F3FE0"/>
  </g>
  <circle cx="416" cy="152" r="11" fill="#2A1740"/>
  <text x="80" y="150" font-family="Impact, 'Arial Black', sans-serif" font-style="italic" font-size="110" fill="#F3C53D" stroke="#000" stroke-width="4">LS</text>
</svg>
