<svg viewBox="0 0 512 512" xmlns="http://www.w3.org/2000/svg">
  <rect width="512" height="512" rx="96" fill="#1A1D20"/>
  <path d="M 96 416 L 200 312 L 280 360 L 416 200" stroke="#33383D" stroke-width="88" stroke-linecap="round" stroke-linejoin="round" fill="none"/>
  <path d="M 96 416 L 200 312 L 280 360 L 416 200" stroke="#EEF1F3" stroke-width="30" stroke-linecap="round" stroke-linejoin="round" fill="none" stroke-dasharray="4 44"/>
  <path d="M 96 416 L 200 312 L 280 360 L 416 176" stroke="#A94DF0" stroke-width="18" stroke-linecap="round" stroke-linejoin="round" fill="none" opacity="0.9"/>
  <defs><mask id="iconHole"><rect width="512" height="512" fill="#fff"/><circle cx="416" cy="152" r="23" fill="#000"/></mask></defs>
  <g mask="url(#iconHole)">
    <g fill="#8F3FE0" stroke="#0E0F11" stroke-width="11">
      <rect x="392.5" y="83.5" width="47" height="137" rx="23.5"/>
      <rect x="347.5" y="128.5" width="137" height="47" rx="23.5"/>
      <circle cx="416" cy="152" r="37.5"/>
    </g>
    <g fill="#8F3FE0">
      <rect x="392.5" y="83.5" width="47" height="137" rx="23.5"/>
      <rect x="347.5" y="128.5" width="137" height="47" rx="23.5"/>
      <circle cx="416" cy="152" r="37.5"/>
    </g>
  </g>
  <circle cx="416" cy="152" r="23" fill="none" stroke="#0E0F11" stroke-width="9"/>
  <text x="80" y="150" font-family="Impact, 'Arial Black', sans-serif" font-style="italic" font-size="110" fill="#F3C53D" stroke="#000" stroke-width="4">LS</text>
</svg>
